<svg width="144" height="143" xmlns="http://www.w3.org/2000/svg" xmlns:xlink="http://www.w3.org/1999/xlink" xml:space="preserve" overflow="hidden"><g transform="translate(-24 -261)"><g><g><g><g><path d="M48.6667 318.208C48.6667 319.025 49.3289 319.688 50.1458 319.688L91.5625 319.688C98.9148 319.688 104.875 313.727 104.875 306.375 104.875 299.023 98.9148 293.062 91.5625 293.062 84.2102 293.062 78.25 299.023 78.25 306.375L78.25 307.854C78.25 308.671 78.9122 309.333 79.7292 309.333 80.5461 309.333 81.2083 308.671 81.2083 307.854L81.2083 306.375C81.2083 300.657 85.844 296.021 91.5625 296.021 97.281 296.021 101.917 300.657 101.917 306.375 101.917 312.093 97.281 316.729 91.5625 316.729L50.1458 316.729C49.3289 316.729 48.6667 317.391 48.6667 318.208Z" stroke="#000000" stroke-width="1.47918" stroke-linecap="butt" stroke-linejoin="miter" stroke-miterlimit="4" stroke-opacity="1" fill="#000000" fill-rule="nonzero" fill-opacity="1"/><path d="M135.938 298.979C125.311 298.986 116.702 307.605 116.708 318.232 116.71 320.407 117.08 322.566 117.803 324.618 118.053 325.395 118.886 325.823 119.664 325.573 120.442 325.323 120.869 324.489 120.619 323.712 120.611 323.685 120.601 323.659 120.591 323.632 117.596 315.16 122.035 305.864 130.507 302.868 138.979 299.873 148.276 304.312 151.271 312.784 154.267 321.256 149.827 330.553 141.355 333.548 139.615 334.164 137.783 334.478 135.938 334.479L38.3125 334.479C37.4956 334.479 36.8333 335.141 36.8333 335.958 36.8333 336.775 37.4956 337.438 38.3125 337.438L135.938 337.438C146.557 337.438 155.167 328.828 155.167 318.208 155.167 307.588 146.557 298.979 135.938 298.979Z" stroke="#000000" stroke-width="1.47918" stroke-linecap="butt" stroke-linejoin="miter" stroke-miterlimit="4" stroke-opacity="1" fill="#000000" fill-rule="nonzero" fill-opacity="1"/><path d="M107.833 352.229 56.0625 352.229C55.2456 352.229 54.5833 352.891 54.5833 353.708 54.5833 354.525 55.2456 355.188 56.0625 355.188L107.833 355.188C111.918 355.189 115.228 358.502 115.226 362.586 115.224 366.671 111.912 369.981 107.827 369.979 104.694 369.978 101.902 368.003 100.858 365.049 100.586 364.279 99.7405 363.875 98.9702 364.147 98.1998 364.419 97.7959 365.264 98.0679 366.034 99.9738 371.426 105.889 374.251 111.281 372.346 116.672 370.44 119.498 364.524 117.592 359.132 116.13 354.996 112.22 352.23 107.833 352.229Z" stroke="#000000" stroke-width="1.47918" stroke-linecap="butt" stroke-linejoin="miter" stroke-miterlimit="4" stroke-opacity="1" fill="#000000" fill-rule="nonzero" fill-opacity="1"/></g></g></g></g></g></svg>