<svg width="284" height="268" xmlns="http://www.w3.org/2000/svg" xmlns:xlink="http://www.w3.org/1999/xlink" xml:space="preserve" overflow="hidden"><defs><clipPath id="clip0"><path d="M450.777 318.84 260.94 454.683 168.497 325.496 358.333 189.652Z" fill-rule="nonzero" clip-rule="nonzero"/></clipPath><clipPath id="clip1"><path d="M450.777 318.84 260.94 454.683 168.497 325.496 358.333 189.652Z" fill-rule="evenodd" clip-rule="evenodd"/></clipPath><clipPath id="clip2"><path d="M501.418 354.131 278.154 513.895 118.388 290.627 341.652 130.864Z" fill-rule="evenodd" clip-rule="evenodd"/></clipPath></defs><g transform="translate(-168 -188)"><g><g clip-path="url(#clip0)"><g clip-path="url(#clip1)"><g clip-path="url(#clip2)"><path d="M45.7563 108.671C45.7563 110.251 47.0366 111.531 48.6161 111.531L128.69 111.531C142.904 111.531 154.428 100.008 154.428 85.7931 154.428 71.5783 142.904 60.0551 128.69 60.0551 114.475 60.0551 102.952 71.5783 102.952 85.7931L102.952 88.6528C102.952 90.2323 104.232 91.5126 105.811 91.5126 107.391 91.5126 108.671 90.2323 108.671 88.6528L108.671 85.7931C108.671 74.7372 117.634 65.7747 128.69 65.7747 139.745 65.7747 148.708 74.7372 148.708 85.7931 148.708 96.8489 139.745 105.811 128.69 105.811L48.6161 105.811C47.0366 105.811 45.7563 107.092 45.7563 108.671Z" stroke="#D4D9D3" stroke-width="2.85978" stroke-linecap="butt" stroke-linejoin="miter" stroke-miterlimit="4" stroke-opacity="1" fill="#D4D9D3" fill-rule="nonzero" fill-opacity="1" transform="matrix(-0.813235 0.581935 -0.581945 -0.81325 501.418 354.131)"/><path d="M214.483 71.4942C193.938 71.5068 177.293 88.1718 177.305 108.717 177.308 112.922 178.024 117.097 179.422 121.063 179.905 122.566 181.517 123.393 183.02 122.909 184.523 122.426 185.35 120.814 184.867 119.311 184.85 119.26 184.832 119.209 184.813 119.158 179.021 102.778 187.604 84.8047 203.984 79.0131 220.363 73.2215 238.337 81.8048 244.129 98.1844 249.92 114.564 241.337 132.538 224.957 138.329 221.593 139.519 218.051 140.127 214.483 140.129L25.7379 140.129C24.1585 140.129 22.8782 141.409 22.8782 142.988 22.8782 144.568 24.1585 145.848 25.7379 145.848L214.483 145.848C235.015 145.848 251.66 129.203 251.66 108.671 251.66 88.1389 235.015 71.4942 214.483 71.4942Z" stroke="#D4D9D3" stroke-width="2.85978" stroke-linecap="butt" stroke-linejoin="miter" stroke-miterlimit="4" stroke-opacity="1" fill="#D4D9D3" fill-rule="nonzero" fill-opacity="1" transform="matrix(-0.813235 0.581935 -0.581945 -0.81325 501.418 354.131)"/><path d="M160.147 174.446 60.0551 174.446C58.4757 174.446 57.1954 175.726 57.1954 177.306 57.1954 178.885 58.4757 180.165 60.0551 180.165L160.147 180.165C168.044 180.169 174.443 186.573 174.44 194.47 174.437 202.367 168.032 208.766 160.135 208.763 154.078 208.761 148.68 204.942 146.66 199.232 146.134 197.742 144.501 196.961 143.011 197.487 141.522 198.013 140.741 199.647 141.267 201.136 144.952 211.56 156.389 217.023 166.813 213.338 177.236 209.653 182.699 198.216 179.015 187.792 176.188 179.796 168.629 174.448 160.147 174.446Z" stroke="#D4D9D3" stroke-width="2.85978" stroke-linecap="butt" stroke-linejoin="miter" stroke-miterlimit="4" stroke-opacity="1" fill="#D4D9D3" fill-rule="nonzero" fill-opacity="1" transform="matrix(-0.813235 0.581935 -0.581945 -0.81325 501.418 354.131)"/></g></g></g></g></g></svg>